# xmcd CD database file
#
# Track frame offsets:
#	150
#	12276
#	21885
#	38194
#	46866
#	61244
#	66273
#	77781
#	92065
#	106915
#	125202
#	144010
#	153272
#	169662
#	182197
#	192290
#	203170
#	216991
#	226155
#	240290
#
# Disc length: 3322 seconds
#
# Revision: 2
# Processed by: cddbd v1.5.2PL0 Copyright (c) Steve Scherf et al.
# Submitted via: CDex 1.82
#
DISCID=080cf814
DTITLE=Various Artist - Country Christmas Collection
DYEAR=2009
DGENRE=Country
TTITLE0=Brooks and Dunn - I'll be Home For Christmas
TTITLE1=Floyd Cramer - Jingle Bell Rock
TTITLE2=Dolly Parton - Hard Candy Christmas
TTITLE3=Elvis Presley - Here Comes Santa Claus (Right Down Santa Claus Lane)
TTITLE4=Jim Reeves - Silent Night
TTITLE5=John Denver - Jingle Bells
TTITLE6=Johnny Cash - The Little Drummer Boy
TTITLE7=Kenny Chesney - Thank God For Kids
TTITLE8=Joe Diffie - Leroy The Redneck Reindeer
TTITLE9=Montgomery Gentry - Merry Christmas From The Family
TTITLE10=Lonestar - Santa Claus Is Comin' To Town
TTITLE11=Lynn Anderson - Rockin' Around The Christmas Tree
TTITLE12=Patty Loveless - Christmas Time's A Comin'
TTITLE13=Roger Whittaker - Country Christmas
TTITLE14=Tammy Wynette - Joy To The World
TTITLE15=Willie Nelson - Pretty Paper
TTITLE16=BlackHawk - We Three Kings (Star Of Wonder)
TTITLE17=Chet Atkins - Away In A Manger
TTITLE18=Gene Autry - Rudolph The Red-Nosed Reindeer
TTITLE19=Ricochet - Let It Snow, Let It Snow, Let It Snow
EXTD=YEAR: 2009
EXTT0=
EXTT1=
EXTT2=
EXTT3=
EXTT4=
EXTT5=
EXTT6=
EXTT7=
EXTT8=
EXTT9=
EXTT10=
EXTT11=
EXTT12=
EXTT13=
EXTT14=
EXTT15=
EXTT16=
EXTT17=
EXTT18=
EXTT19=
PLAYORDER=
